<?xml version="1.0" encoding="UTF-8" standalone="no"?>
<!-- Created with Inkscape (http://www.inkscape.org/) -->

<svg
   xmlns:dc="http://purl.org/dc/elements/1.1/"
   xmlns:cc="http://creativecommons.org/ns#"
   xmlns:rdf="http://www.w3.org/1999/02/22-rdf-syntax-ns#"
   xmlns:svg="http://www.w3.org/2000/svg"
   xmlns="http://www.w3.org/2000/svg"
   xmlns:sodipodi="http://sodipodi.sourceforge.net/DTD/sodipodi-0.dtd"
   xmlns:inkscape="http://www.inkscape.org/namespaces/inkscape"
   id="svg4136"
   version="1.1"
   inkscape:version="0.91 r13725"
   width="128"
   height="128"
   viewBox="0 0 128 128"
   sodipodi:docname="logo.svg">
  <metadata
     id="metadata4142">
    <rdf:RDF>
      <cc:Work
         rdf:about="">
        <dc:format>image/svg+xml</dc:format>
        <dc:type
           rdf:resource="http://purl.org/dc/dcmitype/StillImage" />
        <dc:title />
      </cc:Work>
    </rdf:RDF>
  </metadata>
  <defs
     id="defs4140" />
  <sodipodi:namedview
     pagecolor="#ffffff"
     bordercolor="#666666"
     borderopacity="1"
     objecttolerance="10"
     gridtolerance="10"
     guidetolerance="10"
     inkscape:pageopacity="0"
     inkscape:pageshadow="2"
     inkscape:window-width="1280"
     inkscape:window-height="697"
     id="namedview4138"
     showgrid="false"
     fit-margin-top="0"
     fit-margin-left="0"
     fit-margin-right="0"
     fit-margin-bottom="0"
     inkscape:zoom="3.4285714"
     inkscape:cx="12.04167"
     inkscape:cy="47.87358"
     inkscape:window-x="-8"
     inkscape:window-y="-8"
     inkscape:window-maximized="1"
     inkscape:current-layer="svg4136" />
  <g
     id="g4259"
     transform="matrix(1.140885,0,0,1.140885,-46.559857,-0.68654437)">
    <path
       id="path4254"
       style="fill:#5fe400;fill-opacity:1"
       d="M 126.94569,13.892041 C 129.17759,11.76323 137.65127,8.9489798 143.45791,10 c -0.67673,3.645833 -1.86836,5.248557 -4.4704,8.358727 -4.07843,4.874869 -12.45037,8.000082 -18.61068,8.035978 1.41628,-6.062703 4.33696,-10.373853 6.56886,-12.502664 z M 110.0649,0.60176277 C 118.00541,5.5107196 122.75725,15.728198 116.69945,22 107.66005,18.876218 107.71911,7.9833694 110.0649,0.60176277 Z"
       inkscape:connector-curvature="0"
       sodipodi:nodetypes="zcsczccc" />
    <path
       id="path4252"
       d="m 94.78125,23.015625 c -6.429295,-0.05062 -12.624951,1.134155 -18.107422,3.716797 -8.039504,3.807787 -17.96766,13.278674 -21.488281,20.498047 -3.923437,8.045386 -5.62988,18.854793 -4.273438,27.068359 3.073209,18.608991 18.538172,34.633392 36.273438,37.583982 7.787416,1.29558 10.569305,1.24133 18.095703,-0.35351 28.55144,-6.05006 43.75703,-37.697081 30.7793,-64.058597 -3.9475,-8.018502 -12.90106,-16.553316 -21.77344,-20.755859 -6.41363,-2.362573 -13.07656,-3.648597 -19.50586,-3.699219 z m 1.207937,5.303365 C 112.28021,28.226 128.9256,38.634714 134.06082,55.088521 139.98799,74.079782 131.57957,95.39967 113.47663,103.85072 98.205674,110.21604 82.28435,107.54729 72.570944,100.96554 60.119443,92.389861 53.230112,75.334295 55.942246,61.494351 58.539001,48.243182 65.213677,38.328713 76.874516,32.588101 82.013397,30.058238 90.558844,28.349987 95.989187,28.31899 Z m -1.147388,3.875063 c -31.378696,2.240494 -40.714641,32.779984 -31.553996,49.723012 5.354725,11.280243 15.348349,19.511285 27.246094,20.090675 15.213823,0.76502 25.534883,-3.415887 32.663453,-12.700441 7.12857,-9.284553 8.76381,-21.371911 5.32776,-33.096361 C 123.27998,40.419302 110.75327,31.888216 94.841799,32.194053 Z M 95.5,38 c 3.991727,0 6.10578,4.995784 3.300781,7.800781 C 98.140781,46.460781 96.655,47 95.5,47 92.819541,47 91,45.180459 91,42.5 91,39.819541 92.819541,38 95.5,38 Z m 18,7 c 1.155,0 2.64078,0.539219 3.30078,1.199219 1.90147,1.901469 1.45785,6.592385 -0.73437,7.765625 C 112.38297,55.936164 109,54.110253 109,50.150391 109,46.865699 110.63005,45 113.5,45 Z m -36.107422,0.04297 c 1.530027,0.06279 3.098151,0.819617 4.050781,2.179687 2.568125,6.727114 -3.450175,8.778436 -6.693359,6.384766 -2.01006,-1.525853 -2.316462,-5.642522 -0.550781,-7.408203 0.835319,-0.835319 2.003338,-1.205087 3.193359,-1.15625 z m 18.056641,16.972656 c 1.487754,0.02774 2.95806,0.536185 3.978515,1.556641 2.332466,2.332469 1.988916,7.02245 -0.65039,8.871093 -7.788693,3.481657 -11.278446,-3.704192 -8.220703,-8.220703 1.039861,-1.48461 2.979751,-2.242693 4.892578,-2.207031 z m -24.515625,1.105469 c 3.147419,0.117776 4.890927,3.393809 3.216797,6.089192 -1.67413,2.695384 -6.393752,3.259721 -7.421224,-0.400391 -1.027473,-3.660112 1.276143,-5.565232 4.204427,-5.688801 z m 49.738286,0.06641 c 3.74577,-0.197878 6.29431,3.140752 4.41601,6.650391 -2.52469,4.71742 -10.03004,2.052975 -8.73633,-3.101563 0.35919,-1.431137 1.55167,-2.887607 2.65039,-3.236328 0.57459,-0.182367 1.1348,-0.284232 1.66993,-0.3125 z M 77.449219,81.015625 C 80.651723,81.039546 82.25,82.531791 82.25,85.5 c 0,1.500102 -0.61875,3.118629 -1.375,3.597656 C 77.32495,91.346344 73,89.370854 73,85.5 c 0,-2.669313 1.820039,-4.504014 4.449219,-4.484375 z m 35.371091,0.02344 c 1.49131,-0.07915 3.11124,0.290928 3.98047,1.160157 0.66,0.66 1.19922,2.145781 1.19922,3.300781 0,1.155 -0.53922,2.640781 -1.19922,3.300781 C 116.14078,89.460778 114.655,90 113.5,90 c -3.75051,0 -5.47669,-3.289848 -3.89258,-7.417969 0.35856,-0.934396 1.72159,-1.463816 3.21289,-1.542966 z m -16.871091,7.142579 c 2.143106,-0.0334 3.558573,1.607546 3.863281,4.669921 0.35573,4.926313 -5.025412,5.261228 -7.0625,4.06836 -2.80673,-1.63477 -2.289356,-6.716299 0.828125,-8.136719 0.861376,-0.392469 1.656725,-0.590432 2.371094,-0.601562 z"
       style="fill:#ffba00;fill-opacity:1"
       inkscape:connector-curvature="0"
       sodipodi:nodetypes="scssssscsssccssscccsccsssssssssssccssssccsczzcssssssssssssssssssccss" />
  </g>
</svg>
